# xmcd CD database file
#
# Track frame offsets:
#	150
#	23781
#	46999
#	67052
#	91242
#	115792
#	136358
#	151974
#	175621
#
# Disc length: 2576 seconds
#
# Revision: 0
# Processed by: cddbd v1.5.1PL0 Copyright (c) Steve Scherf et al.
# Submitted via: CDex 1.51
#
DISCID=6d0a0e09
DTITLE=Boney James - Seduction
DYEAR=1900
DGENRE=Jazz
TTITLE0=Camouflage
TTITLE1=Got It Goin' On
TTITLE2=Lights Down Low
TTITLE3=Seduction
TTITLE4=Washington Bridge
TTITLE5=Without A Doubt
TTITLE6=Sara Smile
TTITLE7=Second Nature
TTITLE8=Ain't No Sunshine
EXTD=
EXTT0=
EXTT1=
EXTT2=
EXTT3=
EXTT4=
EXTT5=
EXTT6=
EXTT7=
EXTT8=
PLAYORDER=
